HIERARCHY
ROOT pelvis
{
  OFFSET 0 100 0
  CHANNELS 6 Xposition Yposition Zposition Zrotation Xrotation Yrotation
  JOINT pelvis_right_femur
  {
    OFFSET -10.78128 -3.44521 -0.5502486
    CHANNELS 3 Zrotation Xrotation Yrotation
    JOINT right_femur_tibia
    {
      OFFSET -0.8047443 -44.0398 -0.1307829
      CHANNELS 3 Zrotation Xrotation Yrotation
      JOINT right_tibia_foot
      {
        OFFSET 3.006224 -47.83518 -5
        CHANNELS 3 Zrotation Xrotation Yrotation
        End Site
        {
          OFFSET 0 -5 15
        }
      }
    }
  }
  JOINT pelvis_left_femur
  {
    OFFSET 10.78128 -3.44521 -0.5502486
    CHANNELS 3 Zrotation Xrotation Yrotation
    JOINT left_femur_tibia
    {
      OFFSET 0.8047443 -44.0398 -0.1307829
      CHANNELS 3 Zrotation Xrotation Yrotation
      JOINT left_tibia_foot
      {
        OFFSET -4.370144 -48.10324 -4.275266
        CHANNELS 3 Zrotation Xrotation Yrotation
        End Site
        {
          OFFSET 0 -5 15
        }
      }
    }
  }
  JOINT pelvis_spine1
  {
    OFFSET 0 6.468898 -3.129235
    CHANNELS 3 Zrotation Xrotation Yrotation
    JOINT spine1
    {
      OFFSET 0 23.15396 4.99043
      CHANNELS 3 Zrotation Xrotation Yrotation
      JOINT spine2
      {
        OFFSET 0 20.79997 -5.064912
        CHANNELS 3 Zrotation Xrotation Yrotation
        JOINT neck
        {
          OFFSET 0 14.38658 9.616178
          CHANNELS 3 Zrotation Xrotation Yrotation
          End Site
          {
            OFFSET 0 20 0
          }
        }
      }
      JOINT right_manubrium
      {
        OFFSET -5.722621 16.35077 3.967754
        CHANNELS 3 Zrotation Xrotation Yrotation
        JOINT right_clavicle
        {
          OFFSET -13.16364 1.694482 -4.693211
          CHANNELS 3 Zrotation Xrotation Yrotation
          JOINT right_humerus
          {
            OFFSET -28.5034 -0.3100689 -2.792744
            CHANNELS 3 Zrotation Xrotation Yrotation
            JOINT right_radius
            {
              OFFSET -25.15693 0.02248979 -1.271978
              CHANNELS 3 Zrotation Xrotation Yrotation
              End Site
              {
                OFFSET -15 0 0
              }
            }
          }
        }
      }
      JOINT left_manubrium
      {
        OFFSET 5.722621 16.35077 3.967754
        CHANNELS 3 Zrotation Xrotation Yrotation
        JOINT left_clavicle
        {
          OFFSET 13.16364 1.694482 -4.693211
          CHANNELS 3 Zrotation Xrotation Yrotation
          JOINT left_humerus
          {
            OFFSET 29.39168 -1.063119 -2.237045
            CHANNELS 3 Zrotation Xrotation Yrotation
            JOINT left_radius
            {
              OFFSET 24.59957 -0.9528479 0.9047498
              CHANNELS 3 Zrotation Xrotation Yrotation
              End Site
              {
                OFFSET 15 -0 -0
              }
            }
          }
        }
      }
    }
  }
}
MOTION
Frames: 7
Frame Time: 0.0416666666667
-1515.898 119.714 346.6213 3.86828 7.880269 158.7799 6.563679 13.43604 1.541792 -0 18.72932 -0 -6.589481 -11.51143 -2.282172 4.87135 -17.88865 -2.452897 -0 15.59372 -0 4.682821 1.508058 11.13804 1.811044 -7.231235 8.954641 0.9130139 20.1818 -7.700982 1.459512 17.41735 -0.3915182 -0.6293939 -17.59335 2.160393 0.1711298 -34.99803 14.71612 87.86578 9.128408 -10.98134 -0 0 32.88565 -26.2585 21.00278 18.42759 0.2857344 -24.21492 -10.5194 -95.64158 12.00498 39.93744 0 0 -12.70207 0.4435664 12.90763 11.86989
-1514.97 119.6815 340.4769 3.93138 7.849129 158.3188 6.563679 13.43604 1.541792 -0 18.72932 -0 -6.589481 -11.51143 -2.282172 4.87135 -17.88865 -2.452897 -0 15.59372 -0 4.682821 1.508058 11.13804 1.811044 -7.231235 8.954641 0.9130139 20.1818 -7.700982 1.459512 17.41735 -0.3915182 -0.6293939 -17.59335 2.160393 0.1711298 -34.99803 14.71612 87.86578 9.128408 -10.98134 -0 0 32.88565 -26.2585 21.00278 18.42759 0.2857344 -24.21492 -10.5194 -95.64158 12.00498 39.93744 0 0 -12.70207 0.4435664 12.90763 11.86989
-1513.993 119.6491 334.3401 3.994219 7.817487 157.8577 6.563679 13.43604 1.541792 -0 18.72932 -0 -6.589481 -11.51143 -2.282172 4.87135 -17.88865 -2.452897 -0 15.59372 -0 4.682821 1.508058 11.13804 1.811044 -7.231235 8.954641 0.9130139 20.1818 -7.700982 1.459512 17.41735 -0.3915182 -0.6293939 -17.59335 2.160393 0.1711298 -34.99803 14.71612 87.86578 9.128408 -10.98134 -0 0 32.88565 -26.2585 21.00278 18.42759 0.2857344 -24.21492 -10.5194 -95.64158 12.00498 39.93744 0 0 -12.70207 0.4435664 12.90763 11.86989
-1512.968 119.6166 328.2112 4.056795 7.785345 157.3967 6.563679 13.43604 1.541792 -0 18.72932 -0 -6.589481 -11.51143 -2.282172 4.87135 -17.88865 -2.452897 -0 15.59372 -0 4.682821 1.508058 11.13804 1.811044 -7.231235 8.954641 0.9130139 20.1818 -7.700982 1.459512 17.41735 -0.3915182 -0.6293939 -17.59335 2.160393 0.1711298 -34.99803 14.71612 87.86578 9.128408 -10.98134 -0 0 32.88565 -26.2585 21.00278 18.42759 0.2857344 -24.21492 -10.5194 -95.64158 12.00498 39.93744 0 0 -12.70207 0.4435664 12.90763 11.86989
-1511.893 119.5841 322.0908 4.119103 7.752705 156.9358 6.563679 13.43604 1.541792 -0 18.72932 -0 -6.589481 -11.51143 -2.282172 4.87135 -17.88865 -2.452897 -0 15.59372 -0 4.682821 1.508058 11.13804 1.811044 -7.231235 8.954641 0.9130139 20.1818 -7.700982 1.459512 17.41735 -0.3915182 -0.6293939 -17.59335 2.160393 0.1711298 -34.99803 14.71612 87.86578 9.128408 -10.98134 -0 0 32.88565 -26.2585 21.00278 18.42759 0.2857344 -24.21492 -10.5194 -95.64158 12.00498 39.93744 0 0 -12.70207 0.4435664 12.90763 11.86989
-1510.769 119.5517 315.9791 4.181139 7.71957 156.475 6.563679 13.43604 1.541792 -0 18.72932 -0 -6.589481 -11.51143 -2.282172 4.87135 -17.88865 -2.452897 -0 15.59372 -0 4.682821 1.508058 11.13804 1.811044 -7.231235 8.954641 0.9130139 20.1818 -7.700982 1.459512 17.41735 -0.3915182 -0.6293939 -17.59335 2.160393 0.1711298 -34.99803 14.71612 87.86578 9.128408 -10.98134 -0 0 32.88565 -26.2585 21.00278 18.42759 0.2857344 -24.21492 -10.5194 -95.64158 12.00498 39.93744 0 0 -12.70207 0.4435664 12.90763 11.86989
-1509.597 119.5192 309.8766 4.242899 7.685942 156.0142 6.563679 13.43604 1.541792 -0 18.72932 -0 -6.589481 -11.51143 -2.282172 4.87135 -17.88865 -2.452897 -0 15.59372 -0 4.682821 1.508058 11.13804 1.811044 -7.231235 8.954641 0.9130139 20.1818 -7.700982 1.459512 17.41735 -0.3915182 -0.6293939 -17.59335 2.160393 0.1711298 -34.99803 14.71612 87.86578 9.128408 -10.98134 -0 0 32.88565 -26.2585 21.00278 18.42759 0.2857344 -24.21492 -10.5194 -95.64158 12.00498 39.93744 0 0 -12.70207 0.4435664 12.90763 11.86989
